<svg width="1200" height="720" viewBox="0 0 1200 720" fill="none" xmlns="http://www.w3.org/2000/svg">
  <rect width="1200" height="720" rx="40" fill="#F2F5F9"/>
  <rect x="72" y="72" width="1056" height="576" rx="28" fill="#FFFFFF" stroke="#D7DFE8" stroke-width="4"/>
  <rect x="120" y="136" width="288" height="440" rx="24" fill="#0F172A"/>
  <rect x="444" y="136" width="264" height="120" rx="20" fill="#E8EFF7"/>
  <rect x="444" y="284" width="264" height="120" rx="20" fill="#DDE9F4"/>
  <rect x="444" y="432" width="264" height="120" rx="20" fill="#E8EFF7"/>
  <rect x="744" y="136" width="336" height="416" rx="24" fill="#F8FAFC" stroke="#D7DFE8" stroke-width="4"/>
  <path d="M408 196H444" stroke="#94A3B8" stroke-width="10" stroke-linecap="round"/>
  <path d="M708 196H744" stroke="#94A3B8" stroke-width="10" stroke-linecap="round"/>
  <path d="M408 344H444" stroke="#94A3B8" stroke-width="10" stroke-linecap="round"/>
  <path d="M708 344H744" stroke="#94A3B8" stroke-width="10" stroke-linecap="round"/>
  <path d="M408 492H444" stroke="#94A3B8" stroke-width="10" stroke-linecap="round"/>
  <path d="M708 492H744" stroke="#94A3B8" stroke-width="10" stroke-linecap="round"/>
  <text x="120" y="116" fill="#0F172A" font-family="Arial, sans-serif" font-size="28" font-weight="700">Agent Workflow Desk</text>
  <text x="140" y="200" fill="#E2E8F0" font-family="Arial, sans-serif" font-size="30" font-weight="700">Inbox</text>
  <text x="140" y="252" fill="#94A3B8" font-family="Arial, sans-serif" font-size="22">Spec extraction</text>
  <text x="140" y="296" fill="#94A3B8" font-family="Arial, sans-serif" font-size="22">Review notes</text>
  <text x="140" y="340" fill="#94A3B8" font-family="Arial, sans-serif" font-size="22">Verification loops</text>
  <text x="468" y="206" fill="#0F172A" font-family="Arial, sans-serif" font-size="28" font-weight="700">Plan</text>
  <text x="468" y="354" fill="#0F172A" font-family="Arial, sans-serif" font-size="28" font-weight="700">Build</text>
  <text x="468" y="502" fill="#0F172A" font-family="Arial, sans-serif" font-size="28" font-weight="700">Verify</text>
  <text x="780" y="200" fill="#0F172A" font-family="Arial, sans-serif" font-size="30" font-weight="700">Working notes</text>
  <text x="780" y="252" fill="#475569" font-family="Arial, sans-serif" font-size="22">Testing how agents support day-to-day</text>
  <text x="780" y="288" fill="#475569" font-family="Arial, sans-serif" font-size="22">engineering without losing control.</text>
</svg>
