<svg width="1200" height="720" viewBox="0 0 1200 720" fill="none" xmlns="http://www.w3.org/2000/svg">
  <defs>
    <linearGradient id="bg" x1="84" y1="72" x2="1096" y2="648" gradientUnits="userSpaceOnUse">
      <stop stop-color="#312E81"/>
      <stop offset="1" stop-color="#7C3AED"/>
    </linearGradient>
  </defs>
  <rect width="1200" height="720" rx="48" fill="url(#bg)"/>
  <rect x="80" y="80" width="1040" height="560" rx="36" fill="#1E1B4B" fill-opacity="0.24" stroke="#DDD6FE" stroke-opacity="0.28"/>
  <rect x="774" y="132" width="292" height="292" rx="28" fill="#0F172A" fill-opacity="0.3" stroke="#C4B5FD" stroke-opacity="0.24"/>
  <rect x="820" y="178" width="60" height="60" rx="12" fill="#C4B5FD"/>
  <rect x="890" y="178" width="60" height="60" rx="12" fill="#A78BFA"/>
  <rect x="960" y="178" width="60" height="60" rx="12" fill="#8B5CF6"/>
  <rect x="820" y="248" width="60" height="60" rx="12" fill="#8B5CF6"/>
  <rect x="890" y="248" width="60" height="60" rx="12" fill="#C4B5FD"/>
  <rect x="960" y="248" width="60" height="60" rx="12" fill="#A78BFA"/>
  <rect x="820" y="318" width="60" height="60" rx="12" fill="#A78BFA"/>
  <rect x="890" y="318" width="60" height="60" rx="12" fill="#8B5CF6"/>
  <rect x="960" y="318" width="60" height="60" rx="12" fill="#C4B5FD"/>
  <text x="102" y="178" fill="#EDE9FE" font-family="ui-sans-serif, system-ui, -apple-system, BlinkMacSystemFont, 'Segoe UI', sans-serif" font-size="28" letter-spacing="0.24em">PINNED PROJECT</text>
  <text x="102" y="290" fill="white" font-family="ui-sans-serif, system-ui, -apple-system, BlinkMacSystemFont, 'Segoe UI', sans-serif" font-size="82" font-weight="700">TV Show Bingo</text>
  <text x="102" y="356" fill="#DDD6FE" font-family="ui-sans-serif, system-ui, -apple-system, BlinkMacSystemFont, 'Segoe UI', sans-serif" font-size="34">A shared bingo game for watching shows together</text>
  <text x="102" y="490" fill="#F5F3FF" font-family="ui-sans-serif, system-ui, -apple-system, BlinkMacSystemFont, 'Segoe UI', sans-serif" font-size="30">TypeScript</text>
  <text x="278" y="490" fill="#F5F3FF" font-family="ui-sans-serif, system-ui, -apple-system, BlinkMacSystemFont, 'Segoe UI', sans-serif" font-size="30">TV</text>
  <text x="338" y="490" fill="#F5F3FF" font-family="ui-sans-serif, system-ui, -apple-system, BlinkMacSystemFont, 'Segoe UI', sans-serif" font-size="30">Game</text>
</svg>
