<svg width="1200" height="720" viewBox="0 0 1200 720" fill="none" xmlns="http://www.w3.org/2000/svg">
  <defs>
    <linearGradient id="bg" x1="90" y1="70" x2="1110" y2="650" gradientUnits="userSpaceOnUse">
      <stop stop-color="#431407"/>
      <stop offset="1" stop-color="#EA580C"/>
    </linearGradient>
  </defs>
  <rect width="1200" height="720" rx="48" fill="url(#bg)"/>
  <rect x="80" y="80" width="1040" height="560" rx="36" fill="#7C2D12" fill-opacity="0.18" stroke="#FED7AA" stroke-opacity="0.28"/>
  <circle cx="908" cy="258" r="112" fill="#FDBA74" fill-opacity="0.14"/>
  <path d="M902 194C872 194 848 218 848 248C848 278 872 302 902 302C925 302 945 288 953 268H902V194Z" fill="#FFEDD5"/>
  <path d="M969 248C969 218 945 194 915 194V248H969Z" fill="#FB923C"/>
  <rect x="820" y="416" width="176" height="18" rx="9" fill="#FFEDD5" fill-opacity="0.84"/>
  <rect x="820" y="452" width="132" height="18" rx="9" fill="#FED7AA" fill-opacity="0.56"/>
  <rect x="820" y="488" width="176" height="18" rx="9" fill="#FDBA74"/>
  <text x="102" y="178" fill="#FFEDD5" font-family="ui-sans-serif, system-ui, -apple-system, BlinkMacSystemFont, 'Segoe UI', sans-serif" font-size="28" letter-spacing="0.24em">PINNED PROJECT</text>
  <text x="102" y="290" fill="white" font-family="ui-sans-serif, system-ui, -apple-system, BlinkMacSystemFont, 'Segoe UI', sans-serif" font-size="84" font-weight="700">Watch Wise</text>
  <text x="102" y="356" fill="#FED7AA" font-family="ui-sans-serif, system-ui, -apple-system, BlinkMacSystemFont, 'Segoe UI', sans-serif" font-size="34">AI recommendation UI for movies and TV shows</text>
  <text x="102" y="490" fill="#FFF7ED" font-family="ui-sans-serif, system-ui, -apple-system, BlinkMacSystemFont, 'Segoe UI', sans-serif" font-size="30">TypeScript</text>
  <text x="278" y="490" fill="#FFF7ED" font-family="ui-sans-serif, system-ui, -apple-system, BlinkMacSystemFont, 'Segoe UI', sans-serif" font-size="30">AI UI</text>
  <text x="372" y="490" fill="#FFF7ED" font-family="ui-sans-serif, system-ui, -apple-system, BlinkMacSystemFont, 'Segoe UI', sans-serif" font-size="30">Movies and TV</text>
</svg>
